<svg xmlns="http://www.w3.org/2000/svg" xmlns:xlink="http://www.w3.org/1999/xlink" width="180" zoomAndPan="magnify" viewBox="0 0 135 135.000003" height="180" preserveAspectRatio="xMidYMid meet" version="1.0"><defs><clipPath id="9f9dbfe4c2"><path d="M 3.460938 7.925781 L 131.511719 7.925781 L 131.511719 126.300781 L 3.460938 126.300781 Z M 3.460938 7.925781 " clip-rule="nonzero"/></clipPath></defs><g clip-path="url(#9f9dbfe4c2)"><path fill="#7de5ed" d="M 51.265625 99.207031 C 55.320312 99.207031 58.957031 100.996094 61.4375 103.828125 L 91.113281 103.828125 C 93.589844 100.996094 97.226562 99.207031 101.28125 99.207031 C 108.746094 99.207031 114.800781 105.269531 114.800781 112.75 C 114.800781 120.234375 108.746094 126.296875 101.28125 126.296875 C 93.816406 126.296875 87.761719 120.234375 87.761719 112.75 C 87.761719 112.535156 87.769531 112.320312 87.777344 112.105469 L 64.769531 112.105469 C 64.777344 112.320312 64.785156 112.535156 64.785156 112.75 C 64.785156 120.234375 58.730469 126.296875 51.265625 126.296875 C 43.800781 126.296875 37.746094 120.234375 37.746094 112.75 C 37.746094 112.527344 37.753906 112.308594 37.761719 112.089844 C 33.804688 111.902344 30.222656 110.207031 27.589844 107.566406 C 24.792969 104.765625 23.058594 100.898438 23.058594 96.640625 C 23.058594 92.382812 24.792969 88.515625 27.589844 85.714844 C 29.226562 84.070312 31.230469 82.796875 33.464844 82.019531 L 17.722656 16.679688 C 17.6875 16.53125 17.609375 16.410156 17.503906 16.328125 C 17.410156 16.253906 17.273438 16.207031 17.113281 16.207031 L 7.675781 16.207031 C 5.394531 16.207031 3.546875 14.355469 3.546875 12.070312 C 3.546875 9.785156 5.394531 7.929688 7.675781 7.929688 L 17.113281 7.929688 C 19.167969 7.929688 21.078125 8.625 22.605469 9.828125 C 24.121094 11.027344 25.242188 12.722656 25.726562 14.738281 L 29.726562 31.34375 L 67.722656 31.34375 L 67.722656 35.417969 L 59.507812 35.417969 L 59.507812 48.433594 L 64.671875 48.433594 L 68.121094 52.503906 L 59.507812 52.503906 L 59.507812 65.6875 L 77.660156 65.6875 L 77.660156 62.9375 C 78.292969 63.207031 78.980469 63.351562 79.691406 63.351562 C 80.402344 63.351562 81.089844 63.207031 81.722656 62.9375 L 81.722656 65.6875 L 99.871094 65.6875 L 99.871094 52.503906 L 91.261719 52.503906 L 94.710938 48.433594 L 99.871094 48.433594 L 99.871094 35.417969 L 91.660156 35.417969 L 91.660156 31.34375 L 125.367188 31.34375 C 125.996094 31.34375 126.601562 31.441406 127.179688 31.621094 C 129.804688 32.429688 131.453125 34.921875 131.453125 37.632812 C 131.453125 38.285156 131.351562 38.960938 131.144531 39.644531 L 120.351562 74.707031 C 119.199219 78.441406 116.945312 81.558594 113.996094 83.742188 C 111.042969 85.929688 107.410156 87.179688 103.515625 87.179688 L 69.035156 87.179688 C 68.367188 88.523438 66.984375 89.453125 65.390625 89.453125 L 38.492188 89.453125 C 36.523438 89.453125 34.730469 90.261719 33.429688 91.566406 C 32.128906 92.871094 31.320312 94.667969 31.320312 96.640625 C 31.320312 98.613281 32.128906 100.410156 33.429688 101.714844 C 34.730469 103.019531 36.523438 103.828125 38.492188 103.828125 L 41.09375 103.828125 C 43.574219 100.996094 47.210938 99.207031 51.265625 99.207031 Z M 80.511719 58.902344 L 95.304688 41.4375 C 95.582031 41.109375 95.640625 40.679688 95.460938 40.289062 C 95.28125 39.898438 94.914062 39.664062 94.488281 39.664062 L 87.59375 39.664062 L 87.59375 14.855469 C 87.59375 13.667969 86.628906 12.699219 85.445312 12.699219 L 73.9375 12.699219 C 72.75 12.699219 71.785156 13.667969 71.785156 14.855469 L 71.785156 39.664062 L 64.894531 39.664062 C 64.464844 39.664062 64.101562 39.898438 63.921875 40.289062 C 63.738281 40.679688 63.800781 41.113281 64.078125 41.4375 L 78.871094 58.902344 C 79.082031 59.148438 79.363281 59.28125 79.691406 59.28125 C 80.015625 59.28125 80.296875 59.148438 80.511719 58.902344 Z M 30.707031 35.417969 L 33.84375 48.433594 L 55.445312 48.433594 L 55.445312 35.417969 Z M 34.824219 52.503906 L 38 65.6875 L 55.445312 65.6875 L 55.445312 52.503906 Z M 38.980469 69.757812 L 41.730469 81.171875 L 55.445312 81.171875 L 55.445312 69.757812 Z M 59.507812 81.171875 L 65.390625 81.171875 C 66.847656 81.171875 68.128906 81.949219 68.847656 83.109375 L 77.660156 83.109375 L 77.660156 69.757812 L 59.507812 69.757812 Z M 103.933594 65.6875 L 118.886719 65.6875 L 122.945312 52.503906 L 103.933594 52.503906 Z M 117.632812 69.757812 L 103.933594 69.757812 L 103.933594 83.101562 C 106.789062 83.015625 109.433594 82.074219 111.582031 80.480469 C 113.851562 78.800781 115.589844 76.398438 116.476562 73.515625 Z M 99.871094 69.757812 L 81.722656 69.757812 L 81.722656 83.109375 L 99.871094 83.109375 Z M 103.933594 48.433594 L 124.199219 48.433594 L 127.269531 38.453125 C 127.351562 38.1875 127.390625 37.910156 127.390625 37.632812 C 127.390625 36.710938 126.90625 35.785156 125.988281 35.5 C 125.8125 35.445312 125.605469 35.414062 125.367188 35.414062 L 103.933594 35.414062 Z M 51.265625 107.234375 C 48.226562 107.234375 45.761719 109.707031 45.761719 112.75 C 45.761719 115.796875 48.226562 118.265625 51.265625 118.265625 C 54.304688 118.265625 56.769531 115.796875 56.769531 112.75 C 56.769531 109.707031 54.304688 107.234375 51.265625 107.234375 Z M 101.28125 107.234375 C 98.242188 107.234375 95.777344 109.707031 95.777344 112.75 C 95.777344 115.796875 98.242188 118.265625 101.28125 118.265625 C 104.320312 118.265625 106.785156 115.796875 106.785156 112.75 C 106.785156 109.707031 104.320312 107.234375 101.28125 107.234375 Z M 101.28125 107.234375 " fill-opacity="1" fill-rule="evenodd"/></g></svg>