<svg xmlns="http://www.w3.org/2000/svg" xmlns:xlink="http://www.w3.org/1999/xlink" width="200" zoomAndPan="magnify" viewBox="0 0 150 74.999997" height="100" preserveAspectRatio="xMidYMid meet" version="1.0"><defs><g/><clipPath id="9498d72a49"><path d="M 10.320312 18.601562 L 44.070312 18.601562 L 44.070312 49.351562 L 10.320312 49.351562 Z M 10.320312 18.601562 " clip-rule="nonzero"/></clipPath></defs><g clip-path="url(#9498d72a49)"><path fill="#ffffff" d="M 22.917969 42.3125 C 23.988281 42.3125 24.945312 42.777344 25.601562 43.515625 L 33.421875 43.515625 C 34.074219 42.777344 35.035156 42.3125 36.101562 42.3125 C 38.070312 42.3125 39.664062 43.886719 39.664062 45.832031 C 39.664062 47.777344 38.070312 49.351562 36.101562 49.351562 C 34.132812 49.351562 32.539062 47.777344 32.539062 45.832031 C 32.539062 45.777344 32.539062 45.71875 32.542969 45.664062 L 26.476562 45.664062 C 26.480469 45.71875 26.480469 45.777344 26.480469 45.832031 C 26.480469 47.777344 24.886719 49.351562 22.917969 49.351562 C 20.949219 49.351562 19.355469 47.777344 19.355469 45.832031 C 19.355469 45.773438 19.355469 45.71875 19.359375 45.660156 C 18.316406 45.613281 17.371094 45.171875 16.679688 44.484375 C 15.941406 43.757812 15.484375 42.753906 15.484375 41.648438 C 15.484375 40.539062 15.941406 39.535156 16.679688 38.808594 C 17.109375 38.382812 17.636719 38.050781 18.226562 37.847656 L 14.078125 20.875 C 14.070312 20.835938 14.046875 20.804688 14.019531 20.785156 C 13.996094 20.765625 13.960938 20.753906 13.917969 20.753906 L 11.429688 20.753906 C 10.828125 20.753906 10.339844 20.273438 10.339844 19.679688 C 10.339844 19.082031 10.828125 18.601562 11.429688 18.601562 L 13.917969 18.601562 C 14.460938 18.601562 14.960938 18.78125 15.363281 19.097656 C 15.765625 19.40625 16.058594 19.847656 16.1875 20.371094 L 17.242188 24.683594 L 27.257812 24.683594 L 27.257812 25.742188 L 25.09375 25.742188 L 25.09375 29.125 L 26.453125 29.125 L 27.363281 30.183594 L 25.09375 30.183594 L 25.09375 33.605469 L 29.875 33.605469 L 29.875 32.890625 C 30.042969 32.960938 30.222656 33 30.410156 33 C 30.597656 33 30.78125 32.960938 30.945312 32.890625 L 30.945312 33.605469 L 35.730469 33.605469 L 35.730469 30.183594 L 33.460938 30.183594 L 34.371094 29.125 L 35.730469 29.125 L 35.730469 25.742188 L 33.566406 25.742188 L 33.566406 24.683594 L 42.449219 24.683594 C 42.617188 24.683594 42.777344 24.710938 42.929688 24.757812 C 43.621094 24.96875 44.054688 25.613281 44.054688 26.316406 C 44.054688 26.488281 44.027344 26.664062 43.972656 26.839844 L 41.128906 35.949219 C 40.824219 36.917969 40.230469 37.730469 39.453125 38.296875 C 38.675781 38.863281 37.71875 39.1875 36.691406 39.1875 L 27.601562 39.1875 C 27.425781 39.539062 27.0625 39.78125 26.640625 39.78125 L 19.550781 39.78125 C 19.035156 39.78125 18.5625 39.988281 18.21875 40.328125 C 17.875 40.667969 17.660156 41.132812 17.660156 41.648438 C 17.660156 42.160156 17.875 42.625 18.21875 42.964844 C 18.5625 43.304688 19.035156 43.515625 19.550781 43.515625 L 20.238281 43.515625 C 20.890625 42.777344 21.851562 42.3125 22.917969 42.3125 Z M 30.628906 31.84375 L 34.527344 27.308594 C 34.601562 27.222656 34.617188 27.109375 34.566406 27.007812 C 34.519531 26.90625 34.425781 26.847656 34.3125 26.847656 L 32.496094 26.847656 L 32.496094 20.402344 C 32.496094 20.09375 32.242188 19.839844 31.929688 19.839844 L 28.894531 19.839844 C 28.582031 19.839844 28.328125 20.09375 28.328125 20.402344 L 28.328125 26.847656 L 26.511719 26.847656 C 26.398438 26.847656 26.300781 26.90625 26.253906 27.007812 C 26.207031 27.109375 26.222656 27.222656 26.296875 27.308594 L 30.195312 31.84375 C 30.25 31.90625 30.324219 31.941406 30.410156 31.941406 C 30.496094 31.941406 30.570312 31.90625 30.628906 31.84375 Z M 17.5 25.742188 L 18.328125 29.125 L 24.019531 29.125 L 24.019531 25.742188 Z M 18.585938 30.179688 L 19.421875 33.605469 L 24.019531 33.605469 L 24.019531 30.179688 Z M 19.679688 34.664062 L 20.40625 37.628906 L 24.019531 37.628906 L 24.019531 34.664062 Z M 25.09375 37.628906 L 26.640625 37.628906 C 27.027344 37.628906 27.363281 37.832031 27.554688 38.132812 L 29.875 38.132812 L 29.875 34.664062 L 25.09375 34.664062 Z M 36.800781 33.605469 L 40.742188 33.605469 L 41.8125 30.179688 L 36.800781 30.179688 Z M 40.414062 34.664062 L 36.800781 34.664062 L 36.800781 38.128906 C 37.554688 38.109375 38.25 37.863281 38.816406 37.449219 C 39.414062 37.011719 39.875 36.390625 40.105469 35.640625 Z M 35.730469 34.664062 L 30.945312 34.664062 L 30.945312 38.132812 L 35.730469 38.132812 Z M 36.800781 29.125 L 42.140625 29.125 L 42.953125 26.53125 C 42.972656 26.460938 42.984375 26.390625 42.984375 26.316406 C 42.984375 26.078125 42.855469 25.839844 42.613281 25.765625 C 42.566406 25.75 42.511719 25.742188 42.449219 25.742188 L 36.800781 25.742188 Z M 22.917969 44.398438 C 22.117188 44.398438 21.46875 45.039062 21.46875 45.832031 C 21.46875 46.625 22.117188 47.265625 22.917969 47.265625 C 23.71875 47.265625 24.371094 46.625 24.371094 45.832031 C 24.371094 45.039062 23.71875 44.398438 22.917969 44.398438 Z M 36.101562 44.398438 C 35.300781 44.398438 34.652344 45.039062 34.652344 45.832031 C 34.652344 46.625 35.300781 47.265625 36.101562 47.265625 C 36.902344 47.265625 37.554688 46.625 37.554688 45.832031 C 37.554688 45.039062 36.902344 44.398438 36.101562 44.398438 Z M 36.101562 44.398438 " fill-opacity="1" fill-rule="evenodd"/></g><g fill="#a685e2" fill-opacity="1"><g transform="translate(47.146588, 44.90897)"><g><path d="M 12.09375 -8.828125 C 13.375 -8.585938 14.363281 -8.078125 15.0625 -7.296875 C 15.757812 -6.523438 16.109375 -5.628906 16.109375 -4.609375 C 16.109375 -3.242188 15.519531 -2.144531 14.34375 -1.3125 C 13.175781 -0.488281 11.582031 -0.0507812 9.5625 0 L 0.8125 0 L 0.65625 -0.8125 C 1.144531 -1.132812 1.863281 -1.476562 2.8125 -1.84375 L 2.8125 -15.125 L 1.015625 -15.359375 L 1.03125 -16.640625 C 3.5 -16.773438 6.132812 -16.84375 8.9375 -16.84375 C 10.851562 -16.84375 12.390625 -16.445312 13.546875 -15.65625 C 14.710938 -14.863281 15.296875 -13.835938 15.296875 -12.578125 C 15.296875 -11.734375 15.019531 -10.945312 14.46875 -10.21875 C 13.925781 -9.488281 13.132812 -9.023438 12.09375 -8.828125 Z M 6.65625 -14.5 L 6.65625 -9.515625 L 7.8125 -9.515625 C 9.007812 -9.515625 9.90625 -9.769531 10.5 -10.28125 C 11.101562 -10.800781 11.40625 -11.429688 11.40625 -12.171875 C 11.40625 -12.773438 11.210938 -13.34375 10.828125 -13.875 C 10.453125 -14.40625 9.976562 -14.738281 9.40625 -14.875 Z M 8.671875 -1.953125 L 9.109375 -1.921875 C 10.054688 -1.921875 10.78125 -2.191406 11.28125 -2.734375 C 11.789062 -3.273438 12.046875 -3.914062 12.046875 -4.65625 C 12.046875 -5.507812 11.734375 -6.25 11.109375 -6.875 C 10.492188 -7.5 9.722656 -7.820312 8.796875 -7.84375 L 6.65625 -7.84375 L 6.65625 -2.15625 Z M 8.671875 -1.953125 "/></g></g></g><g fill="#a685e2" fill-opacity="1"><g transform="translate(64.04275, 44.90897)"><g><path d="M 15.328125 -1.21875 L 12.21875 0.40625 C 11.800781 0.382812 11.351562 0.171875 10.875 -0.234375 C 10.40625 -0.648438 10.0625 -1.132812 9.84375 -1.6875 C 8.34375 -0.644531 6.898438 0.0507812 5.515625 0.40625 C 4.992188 0.375 4.441406 0.195312 3.859375 -0.125 C 3.273438 -0.445312 2.804688 -0.867188 2.453125 -1.390625 C 2.210938 -1.742188 2.085938 -2.53125 2.078125 -3.75 L 2.078125 -10.171875 L 0.171875 -10.390625 L 0 -11.609375 C 1.445312 -12.171875 2.945312 -12.46875 4.5 -12.5 L 5.75 -11.390625 L 5.75 -4.453125 C 5.75 -2.984375 6.285156 -2.25 7.359375 -2.25 C 7.960938 -2.25 8.6875 -2.460938 9.53125 -2.890625 L 9.53125 -10.1875 L 7.9375 -10.453125 L 7.765625 -11.65625 C 9.015625 -12.144531 10.414062 -12.425781 11.96875 -12.5 L 13.203125 -11.390625 L 13.203125 -2.890625 C 13.203125 -2.429688 13.414062 -2.203125 13.84375 -2.203125 L 15.109375 -2.359375 Z M 15.328125 -1.21875 "/></g></g></g><g fill="#a685e2" fill-opacity="1"><g transform="translate(79.522468, 44.90897)"><g><path d="M 14.390625 -1.21875 L 11.28125 0.40625 C 10.863281 0.382812 10.421875 0.175781 9.953125 -0.21875 C 9.492188 -0.613281 9.144531 -1.085938 8.90625 -1.640625 L 6.046875 0.40625 C 4.410156 0.425781 3.050781 -0.164062 1.96875 -1.375 C 0.894531 -2.582031 0.359375 -4.097656 0.359375 -5.921875 C 0.359375 -7.828125 0.976562 -9.398438 2.21875 -10.640625 C 3.46875 -11.890625 5.054688 -12.515625 6.984375 -12.515625 C 7.523438 -12.515625 8.0625 -12.445312 8.59375 -12.3125 L 8.59375 -16.3125 L 6.703125 -16.515625 L 6.53125 -17.734375 C 7.976562 -18.285156 9.476562 -18.582031 11.03125 -18.625 L 12.265625 -17.484375 L 12.265625 -2.890625 C 12.265625 -2.429688 12.476562 -2.203125 12.90625 -2.203125 L 14.171875 -2.359375 Z M 4.203125 -6.296875 C 4.203125 -5.179688 4.445312 -4.253906 4.9375 -3.515625 C 5.4375 -2.785156 6.125 -2.421875 7 -2.421875 C 7.457031 -2.421875 7.988281 -2.550781 8.59375 -2.8125 L 8.59375 -9.8125 C 7.789062 -10.21875 6.992188 -10.421875 6.203125 -10.421875 L 5.75 -10.390625 C 4.71875 -9.429688 4.203125 -8.066406 4.203125 -6.296875 Z M 4.203125 -6.296875 "/></g></g></g><g fill="#a685e2" fill-opacity="1"><g transform="translate(94.06632, 44.90897)"><g><path d="M 10.328125 -6.015625 L 3.875 -6.09375 C 3.9375 -4.84375 4.320312 -3.875 5.03125 -3.1875 C 5.738281 -2.5 6.640625 -2.15625 7.734375 -2.15625 C 8.648438 -2.15625 9.734375 -2.457031 10.984375 -3.0625 L 11.515625 -1.71875 L 7.53125 0.328125 L 6.734375 0.375 C 4.878906 0.375 3.351562 -0.207031 2.15625 -1.375 C 0.957031 -2.550781 0.359375 -4.039062 0.359375 -5.84375 C 0.359375 -7.726562 0.960938 -9.316406 2.171875 -10.609375 C 3.390625 -11.898438 4.867188 -12.546875 6.609375 -12.546875 C 8.117188 -12.546875 9.359375 -12.078125 10.328125 -11.140625 C 11.296875 -10.203125 11.78125 -8.984375 11.78125 -7.484375 Z M 5.71875 -10.625 C 4.84375 -10.113281 4.273438 -9.1875 4.015625 -7.84375 L 8.40625 -8.0625 C 8.28125 -8.789062 7.96875 -9.398438 7.46875 -9.890625 C 6.976562 -10.378906 6.394531 -10.625 5.71875 -10.625 Z M 5.71875 -10.625 "/></g></g></g><g fill="#a685e2" fill-opacity="1"><g transform="translate(106.30845, 44.90897)"><g><path d="M 14.0625 -10.78125 L 13.515625 -10.796875 C 12.835938 -10.796875 12.21875 -10.6875 11.65625 -10.46875 C 12.132812 -9.8125 12.375 -9.078125 12.375 -8.265625 C 12.375 -6.984375 11.820312 -5.9375 10.71875 -5.125 C 9.613281 -4.320312 8.242188 -3.921875 6.609375 -3.921875 L 5.75 -3.96875 L 4.421875 -2.828125 C 5.753906 -2.816406 7.226562 -2.660156 8.84375 -2.359375 C 10.46875 -2.066406 11.894531 -1.71875 13.125 -1.3125 C 13.289062 -0.820312 13.375 -0.328125 13.375 0.171875 C 13.375 1.773438 12.613281 3.164062 11.09375 4.34375 C 9.582031 5.53125 7.804688 6.125 5.765625 6.125 C 4.347656 6.125 3.125 5.804688 2.09375 5.171875 C 1.070312 4.535156 0.539062 3.585938 0.5 2.328125 L 3.28125 -0.171875 L 1.6875 -0.28125 L 1.1875 -1.890625 C 2.0625 -2.859375 3.003906 -3.671875 4.015625 -4.328125 C 3.054688 -4.660156 2.296875 -5.175781 1.734375 -5.875 C 1.179688 -6.582031 0.90625 -7.375 0.90625 -8.25 C 0.90625 -9.507812 1.457031 -10.5625 2.5625 -11.40625 C 3.664062 -12.25 5.035156 -12.671875 6.671875 -12.671875 C 8.046875 -12.671875 9.21875 -12.375 10.1875 -11.78125 C 10.769531 -13.15625 11.851562 -13.910156 13.4375 -14.046875 Z M 7.796875 -5.75 C 8.429688 -6.21875 8.75 -6.984375 8.75 -8.046875 C 8.75 -8.804688 8.519531 -9.472656 8.0625 -10.046875 C 7.613281 -10.617188 7.035156 -10.90625 6.328125 -10.90625 C 5.972656 -10.90625 5.601562 -10.820312 5.21875 -10.65625 C 4.738281 -10.175781 4.5 -9.40625 4.5 -8.34375 C 4.5 -7.539062 4.703125 -6.875 5.109375 -6.34375 C 5.515625 -5.820312 6.070312 -5.5625 6.78125 -5.5625 C 7.050781 -5.5625 7.390625 -5.625 7.796875 -5.75 Z M 6.28125 3.28125 C 7.1875 3.28125 8.078125 3.113281 8.953125 2.78125 C 9.828125 2.445312 10.46875 1.972656 10.875 1.359375 C 9.351562 0.722656 7.332031 0.257812 4.8125 -0.03125 C 3.894531 0.664062 3.4375 1.285156 3.4375 1.828125 C 3.4375 2.273438 3.703125 2.628906 4.234375 2.890625 C 4.765625 3.148438 5.445312 3.28125 6.28125 3.28125 Z M 6.28125 3.28125 "/></g></g></g><g fill="#a685e2" fill-opacity="1"><g transform="translate(120.700544, 44.90897)"><g><path d="M 13.53125 -1.21875 L 10.453125 0.40625 C 10.046875 0.382812 9.625 0.203125 9.1875 -0.140625 C 8.75 -0.484375 8.398438 -0.910156 8.140625 -1.421875 L 5.390625 0.328125 L 4.609375 0.375 C 3.546875 0.375 2.664062 0.0625 1.96875 -0.5625 C 1.28125 -1.1875 0.9375 -1.9375 0.9375 -2.8125 C 0.9375 -4.019531 1.59375 -4.976562 2.90625 -5.6875 L 7.734375 -5.8125 L 7.734375 -8.0625 C 7.734375 -9.414062 7.335938 -10.28125 6.546875 -10.65625 C 5.773438 -10.601562 5.144531 -10.492188 4.65625 -10.328125 L 4.203125 -7.59375 L 2.078125 -7.515625 C 1.703125 -8.441406 1.515625 -9.460938 1.515625 -10.578125 L 1.546875 -11.078125 C 2.472656 -11.484375 3.582031 -11.84375 4.875 -12.15625 C 6.175781 -12.46875 7.164062 -12.625 7.84375 -12.625 C 8.46875 -12.625 9.078125 -12.453125 9.671875 -12.109375 C 10.273438 -11.773438 10.757812 -11.335938 11.125 -10.796875 C 11.3125 -10.484375 11.414062 -9.84375 11.4375 -8.875 L 11.4375 -2.8125 C 11.4375 -2.40625 11.644531 -2.203125 12.0625 -2.203125 L 13.3125 -2.359375 Z M 5.140625 -1.875 C 5.804688 -1.882812 6.671875 -2.09375 7.734375 -2.5 L 7.734375 -4.328125 L 7.109375 -4.34375 C 5.441406 -4.34375 4.609375 -3.890625 4.609375 -2.984375 C 4.609375 -2.523438 4.785156 -2.15625 5.140625 -1.875 Z M 5.140625 -1.875 "/></g></g></g></svg>